# xmcd
# 
# Track frame offsets:
#     150
#     14975
#     31790
#     48880
#     73407
#     92957
#     107787
#     123865
#     148555
#     163340
#     180519
# 
# Disc length: 2612
# 
# Revision: 6
# Processed by: cddbd v1.5.2PL0 Copyright (c) Steve Scherf et al.
# Submitted via: fre:ac v1.0.31
# 
DISCID=9c0a320b
DTITLE=North Mississippi Allstars - 51 Phantom
DYEAR=2001
DGENRE=Rock/Pop
TTITLE0=51 Phantom
TTITLE1=Snakes in My Bushes
TTITLE2=Sugartown
TTITLE3=Lord Have Mercy
TTITLE4=Storm
TTITLE5=Freedom Highway
TTITLE6=Circle in the Sky
TTITLE7=Ship
TTITLE8=Leavin'
TTITLE9=Up over Yonder
TTITLE10=Mud
EXTD=Tone-Cool - Artemis 751 102-2 YEAR: 2001
EXTT0=
EXTT1=
EXTT2=
EXTT3=
EXTT4=
EXTT5=
EXTT6=
EXTT7=
EXTT8=
EXTT9=
EXTT10=
PLAYORDER=
